<?xml version="1.0" encoding="utf-8"?>
<!-- Generator: Adobe Illustrator 22.1.0, SVG Export Plug-In . SVG Version: 6.00 Build 0)  -->
<svg version="1.1" id="Layer_1" xmlns="http://www.w3.org/2000/svg" xmlns:xlink="http://www.w3.org/1999/xlink" x="0px" y="0px"
	 viewBox="0 0 63.3 55.3" style="enable-background:new 0 0 63.3 55.3;" xml:space="preserve">
<title>Asset 1</title>
<g id="Layer_2_1_">
	<g id="Layer_2-2">
		<path d="M21,48.1c0.4-1,0.8-2,1.2-3c0.4-1,0.8-2,1.2-3s0.6-1.8,0.9-2.6c0.2-0.6,0.3-1.3,0.3-1.9c0-0.2-0.1-0.4-0.3-0.5
			c-0.2-0.1-0.5-0.2-0.7-0.3c-0.3-0.1-0.5-0.2-0.7-0.3c-0.2-0.1-0.3-0.3-0.3-0.5c0-0.2,0-0.4,0.1-0.5c1.1,0.1,2.2,0.1,3.4,0.1
			c0.5,0,1,0,1.4,0c0.4,0,0.9,0,1.3-0.1c0.1,0.1,0.1,0.2,0.1,0.3c0,0.1,0,0.2,0,0.2c0,0.3-0.2,0.5-0.4,0.6c0,0-0.1,0-0.1,0
			c-0.3,0-0.5,0.1-0.7,0.2c-0.2,0.1-0.4,0.1-0.5,0.2c-0.2,0.2-0.3,0.3-0.4,0.6c-0.1,0.2-0.3,0.6-0.4,1l-5.5,14.3
			c-0.2,0.1-0.4,0.1-0.6,0.1c-0.2,0-0.4-0.1-0.5-0.2c-0.2-0.3-0.4-0.7-0.5-1.1l-4.5-10.9L9.7,52.8c-0.2,0-0.5,0.1-0.7,0.1
			c-0.3,0-0.6-0.2-0.7-0.5C8.1,52,8,51.6,7.8,51.1L2.6,38.5c-0.1-0.3-0.3-0.7-0.4-1C2,37.3,1.9,37.2,1.7,37
			c-0.1-0.1-0.3-0.2-0.5-0.3c-0.2,0-0.4-0.1-0.7-0.2C0.2,36.5,0,36.3,0,36c0-0.2,0-0.4,0.1-0.5c0.5,0.1,1.1,0.1,1.7,0.1s1.2,0,1.9,0
			h1.4c0.6,0,1.1,0,1.6,0l1.6-0.1c0,0.1,0.1,0.2,0.1,0.3c0,0.1,0,0.2,0,0.2c0,0.3-0.2,0.5-0.5,0.5C6.6,36.7,6,37,6,37.4
			c0.2,1,0.5,2,1,3l3.1,7.7l4.8-12.5c0.1-0.3,0.3-0.4,0.5-0.4c0.1,0,0.2,0,0.4,0.1L21,48.1z"/>
		<path d="M52.2,44.2c0.3,0,0.5,0.3,0.5,0.8c-0.8,0.5-1.7,0.8-2.6,0.7c-0.5,0-1-0.1-1.5-0.3c-0.8-0.3-1.4-0.9-1.8-1.7
			c-0.2-0.4-0.3-0.8-0.3-1.2c-0.5,1-1.3,1.9-2.4,2.5c-1,0.5-2.1,0.7-3.2,0.7c-0.6,0-1.1,0-1.7-0.1c-0.6-0.1-1.2-0.3-1.7-0.6
			c-0.5-0.3-1-0.7-1.3-1.2c-0.4-0.6-0.6-1.4-0.5-2.1c0-0.9,0.2-1.8,0.7-2.5c0.5-0.7,1.1-1.3,1.8-1.7c0.8-0.4,1.6-0.8,2.4-1
			c0.9-0.3,1.7-0.5,2.5-0.7c0.5-0.1,0.9-0.2,1.3-0.3s0.7-0.2,1-0.3c0.3,0,0.5-0.2,0.7-0.4c0.1-0.3,0.2-0.7,0.1-1.1
			c0-1.1-0.2-2.1-0.7-3.1c-0.6-0.8-1.5-1.3-2.6-1.2c-0.4,0-0.8,0-1.2,0.2c-0.3,0.1-0.6,0.3-0.8,0.5c-0.2,0.3-0.4,0.6-0.6,0.9
			c-0.2,0.4-0.3,0.8-0.5,1.3c-0.1,0.3-0.3,0.5-0.5,0.6c-0.5,0.2-0.9,0.4-1.4,0.5c-0.2,0.1-0.4,0.1-0.6,0.2c-0.2,0-0.4,0.1-0.6,0.1
			c-0.3,0-0.4-0.3-0.4-0.8c0-0.6,0.3-1.3,0.7-1.7c0.5-0.6,1.1-1.1,1.7-1.5c0.7-0.5,1.5-0.8,2.3-1.1c0.8-0.3,1.6-0.4,2.4-0.4
			c0.8,0,1.7,0.1,2.5,0.2c0.7,0.1,1.4,0.4,1.9,0.9c0.6,0.5,1,1,1.2,1.7c0.3,0.9,0.5,1.8,0.4,2.8v6.8c0,0.7,0,1.3,0.1,2
			c0,0.3,0.1,0.7,0.3,1c0.1,0.3,0.3,0.6,0.6,0.7c0.2,0.1,0.5,0.2,0.7,0.2c0.2,0,0.4,0,0.6-0.1C52,44.2,52.1,44.2,52.2,44.2z
			 M46.2,36.4l-1.3,0.2c-0.7,0.1-1.4,0.3-2,0.5c-0.6,0.2-1.2,0.4-1.8,0.8c-0.5,0.3-0.9,0.8-1.2,1.3c-0.3,0.6-0.5,1.2-0.5,1.9
			c-0.1,0.8,0.2,1.7,0.8,2.3c0.5,0.5,1.2,0.8,2,0.8c0.5,0,1-0.1,1.5-0.3c0.5-0.2,0.9-0.6,1.3-1c0.4-0.4,0.7-0.9,0.9-1.5
			c0.2-0.6,0.3-1.2,0.3-1.8V36.4z"/>
		<path d="M35,25.1c0.3,0,0.4,0.3,0.5,0.8c-0.8,0.5-1.7,0.8-2.6,0.7c-0.5,0-1-0.1-1.5-0.3c-0.4-0.2-0.8-0.4-1.1-0.7
			c-0.3-0.3-0.5-0.6-0.7-1c-0.2-0.4-0.3-0.8-0.3-1.1c-0.5,1-1.4,1.9-2.4,2.4c-1,0.5-2.1,0.7-3.2,0.7c-0.6,0-1.1,0-1.7-0.1
			c-0.6-0.1-1.2-0.3-1.7-0.6c-0.5-0.3-1-0.7-1.3-1.2c-0.4-0.6-0.6-1.4-0.5-2.1c0-0.9,0.2-1.8,0.7-2.5c0.5-0.7,1.1-1.3,1.8-1.7
			c0.8-0.4,1.6-0.8,2.4-1.1c0.9-0.3,1.7-0.5,2.5-0.7c0.5-0.1,0.9-0.2,1.3-0.3s0.7-0.2,1-0.3c0.3-0.1,0.5-0.2,0.7-0.4
			c0.1-0.3,0.2-0.7,0.1-1.1c0-1.1-0.2-2.1-0.7-3.1c-0.6-0.9-1.5-1.3-2.6-1.2c-0.4,0-0.8,0-1.2,0.2c-0.3,0.1-0.6,0.3-0.8,0.5
			c-0.2,0.3-0.4,0.6-0.6,0.9c-0.2,0.4-0.3,0.8-0.5,1.3c-0.1,0.3-0.3,0.5-0.5,0.6c-0.5,0.2-0.9,0.4-1.4,0.5c-0.2,0.1-0.4,0.1-0.6,0.2
			c-0.2,0-0.4,0.1-0.6,0.1c-0.3,0-0.4-0.3-0.4-0.8c0-0.6,0.3-1.2,0.7-1.7c0.5-0.6,1.1-1.1,1.7-1.6c0.7-0.5,1.5-0.8,2.3-1.1
			c0.8-0.3,1.5-0.4,2.4-0.4c0.8,0,1.7,0.1,2.5,0.2c0.7,0.1,1.4,0.4,1.9,0.9c0.6,0.5,1,1,1.2,1.7c0.3,0.9,0.5,1.8,0.4,2.8v6.9
			c0,0.7,0,1.3,0.1,2c0,0.3,0.1,0.7,0.3,1c0.1,0.3,0.3,0.6,0.6,0.7c0.2,0.1,0.5,0.2,0.7,0.2c0.2,0,0.4,0,0.6-0.1
			C34.7,25.2,34.9,25.1,35,25.1z M28.9,17.3l-1.3,0.2c-0.7,0.1-1.4,0.3-2,0.5c-0.6,0.2-1.2,0.4-1.8,0.8c-0.5,0.3-0.9,0.8-1.2,1.3
			c-0.3,0.6-0.5,1.2-0.5,1.9c-0.1,0.8,0.2,1.7,0.8,2.3c0.5,0.5,1.2,0.8,2,0.8c0.5,0,1-0.1,1.5-0.3c0.5-0.2,0.9-0.5,1.3-1
			c0.4-0.4,0.7-0.9,0.9-1.5c0.2-0.6,0.3-1.2,0.3-1.8L28.9,17.3z"/>
		<path d="M60.4,15.1c0,0.4,0.3,0.8,0.7,0.9c0.5,0.2,1.1,0.4,1.6,0.5c0.2,0,0.4,0.3,0.3,0.5c0,0.2,0,0.4-0.1,0.6
			c-0.7-0.1-1.4-0.1-2-0.1s-1.4-0.1-2.2-0.1s-1.4,0-2.1,0.1s-1.4,0.1-2.1,0.1c0-0.2-0.1-0.4-0.1-0.6c0-0.2,0.1-0.4,0.4-0.5
			c0.5-0.1,1-0.2,1.5-0.4c0.4-0.1,0.7-0.5,0.7-0.9V7.2c0-0.6,0-1.2-0.1-1.8c-0.1-0.5-0.2-1-0.5-1.5c-0.2-0.4-0.5-0.8-0.9-1
			c-0.5-0.2-1-0.4-1.5-0.3c-0.7,0-1.4,0.1-2,0.3c-0.6,0.2-1.2,0.6-1.7,1c-0.5,0.5-0.9,1-1.2,1.6C49,6.2,48.8,7,48.8,7.8V15
			c0,0.4,0.3,0.8,0.7,0.9c0.5,0.2,1,0.4,1.5,0.5c0.2,0,0.4,0.2,0.4,0.5c0,0.2,0,0.4-0.1,0.6c-0.7-0.1-1.4-0.1-2-0.1
			s-1.4-0.1-2.1-0.1s-1.5,0-2.2,0.1s-1.4,0.1-2,0.1c0-0.2-0.1-0.4-0.1-0.6c0-0.2,0.1-0.4,0.4-0.5c0.5-0.1,1.1-0.3,1.6-0.5
			c0.4-0.1,0.7-0.5,0.7-0.9V4.2c0.1-0.6-0.1-1.2-0.4-1.7C44.6,2,44,1.8,43.3,1.8c-0.3,0-0.5-0.3-0.5-0.6c0,0,0,0,0,0
			c0-0.2,0-0.4,0.1-0.5c0.3,0,0.8,0,1.5-0.1s1.1-0.1,1.5-0.1c0.6-0.1,1.2-0.2,1.7-0.3c0.3-0.1,0.7-0.2,1-0.2c0.4,0,0.6,0.2,0.6,0.6
			c0,0.4,0,0.9-0.1,1.3c-0.1,0.7-0.2,1.4-0.2,2.1c1-1.1,2.1-2.1,3.3-3c1-0.7,2.2-1,3.4-1c1.4-0.1,2.7,0.4,3.6,1.4
			c0.9,1.1,1.3,2.5,1.2,3.9V15.1z"/>
		<path d="M58.2,52.6c0-0.7,0.3-1.3,0.8-1.8c0.5-0.5,1.1-0.8,1.8-0.8c0.7,0,1.3,0.3,1.8,0.8c1,1.1,1,2.7,0,3.7
			c-0.5,0.5-1.1,0.8-1.8,0.7c-0.7,0-1.3-0.2-1.8-0.7C58.5,54,58.2,53.3,58.2,52.6z"/>
	</g>
</g>
</svg>
