<svg xmlns="http://www.w3.org/2000/svg" viewBox="0 0 63.29 55.26"><defs><style>.cls-1{fill:#fff;}</style></defs><title>Asset 1</title><g id="Layer_2" data-name="Layer 2"><g id="Layer_2-2" data-name="Layer 2"><path class="cls-1" d="M21,48.09q.55-1.47,1.2-3c.42-1,.82-2,1.18-3s.65-1.81.88-2.59a7.56,7.56,0,0,0,.34-1.9.59.59,0,0,0-.34-.54,4.41,4.41,0,0,0-.74-.3,4.56,4.56,0,0,1-.74-.28.51.51,0,0,1-.34-.48,1.17,1.17,0,0,1,.12-.52c1.12.08,2.24.12,3.35.12.54,0,1,0,1.44,0a12.09,12.09,0,0,0,1.32-.1.67.67,0,0,1,.1.28c0,.11,0,.19,0,.24a.5.5,0,0,1-.52.56,4.73,4.73,0,0,0-.74.18A1.78,1.78,0,0,0,27,37a1.68,1.68,0,0,0-.42.56q-.18.36-.42,1l-5.55,14.3a2.74,2.74,0,0,1-.64.08.65.65,0,0,1-.5-.2,5,5,0,0,1-.54-1.12L14.42,40.74,9.71,52.85a4,4,0,0,1-.68.08.78.78,0,0,1-.7-.54c-.18-.36-.37-.79-.58-1.3L2.6,38.55a9.33,9.33,0,0,0-.44-1A2.47,2.47,0,0,0,1.74,37a1.25,1.25,0,0,0-.52-.28c-.2,0-.43-.11-.7-.16A.58.58,0,0,1,0,36a1.17,1.17,0,0,1,.12-.52c.53.06,1.1.09,1.72.1s1.24,0,1.87,0H5.07c.59,0,1.13,0,1.64,0l1.56-.08a.85.85,0,0,1,.1.28c0,.11,0,.19,0,.24,0,.32-.18.49-.52.52C6.64,36.7,6,37,6,37.39a13.39,13.39,0,0,0,1,3l3.08,7.7,4.79-12.5c.11-.29.26-.44.48-.44a1.4,1.4,0,0,1,.36.08Z"/><path class="cls-1" d="M52.24,44.16c.29,0,.45.28.48.83a4.56,4.56,0,0,1-2.64.72,4,4,0,0,1-1.53-.26,3.22,3.22,0,0,1-1.78-1.69,4.79,4.79,0,0,1-.33-1.16,5.52,5.52,0,0,1-2.37,2.45,7.29,7.29,0,0,1-3.18.66,10.33,10.33,0,0,1-1.7-.14A4.92,4.92,0,0,1,37.5,45a3.54,3.54,0,0,1-1.32-1.23,3.83,3.83,0,0,1-.52-2.12,4.28,4.28,0,0,1,.7-2.5,5.58,5.58,0,0,1,1.8-1.68,11,11,0,0,1,2.39-1.05c.87-.27,1.7-.5,2.5-.68.45-.08.87-.17,1.26-.26s.72-.2,1-.3a1.07,1.07,0,0,0,.69-.44,2.66,2.66,0,0,0,.14-1.08,6.05,6.05,0,0,0-.71-3.1,2.73,2.73,0,0,0-2.56-1.21,3.61,3.61,0,0,0-1.16.16,1.86,1.86,0,0,0-.8.49,3.23,3.23,0,0,0-.56.9q-.24.57-.48,1.32a.94.94,0,0,1-.54.64,10.87,10.87,0,0,1-1.41.48,6.19,6.19,0,0,1-.6.16,3.1,3.1,0,0,1-.6.08c-.27,0-.4-.28-.4-.84A2.86,2.86,0,0,1,37,31a6.86,6.86,0,0,1,1.73-1.55,10.36,10.36,0,0,1,2.3-1.1,7.36,7.36,0,0,1,2.36-.42,12.12,12.12,0,0,1,2.52.24,4.57,4.57,0,0,1,1.93.88,4.06,4.06,0,0,1,1.24,1.71,7.87,7.87,0,0,1,.42,2.8V40.4a13.76,13.76,0,0,0,.1,2,3.25,3.25,0,0,0,.3,1,1.63,1.63,0,0,0,.62.74,1.46,1.46,0,0,0,.7.18,1.77,1.77,0,0,0,.62-.08A.81.81,0,0,1,52.24,44.16Zm-6.08-7.79-1.28.2c-.7.13-1.37.29-2,.48a6.19,6.19,0,0,0-1.75.77,4,4,0,0,0-1.22,1.26A3.54,3.54,0,0,0,39.41,41a3.17,3.17,0,0,0,.79,2.32,2.62,2.62,0,0,0,1.95.8,3.64,3.64,0,0,0,1.5-.34,3.82,3.82,0,0,0,1.29-1,5.07,5.07,0,0,0,.88-1.46,4.78,4.78,0,0,0,.34-1.84Z"/><path class="cls-1" d="M35,25.13q.43,0,.48.84a4.52,4.52,0,0,1-2.64.72,4,4,0,0,1-1.53-.26,3.15,3.15,0,0,1-1.09-.7,3,3,0,0,1-.69-1,4.19,4.19,0,0,1-.32-1.15A5.64,5.64,0,0,1,26.82,26a7.27,7.27,0,0,1-3.17.66,10.25,10.25,0,0,1-1.7-.14,4.9,4.9,0,0,1-1.7-.58,3.64,3.64,0,0,1-1.32-1.24,3.85,3.85,0,0,1-.52-2.11,4.28,4.28,0,0,1,.7-2.5,5.79,5.79,0,0,1,1.8-1.68,10.86,10.86,0,0,1,2.4-1.06c.86-.26,1.69-.49,2.49-.67.45-.08.87-.17,1.26-.26s.73-.2,1-.3a1.13,1.13,0,0,0,.7-.44,2.85,2.85,0,0,0,.14-1.08,6.05,6.05,0,0,0-.72-3.1,2.72,2.72,0,0,0-2.56-1.22,3.91,3.91,0,0,0-1.16.16,2,2,0,0,0-.79.5,3,3,0,0,0-.56.9c-.16.38-.32.81-.48,1.32a1,1,0,0,1-.54.64,11.15,11.15,0,0,1-1.42.48,6.19,6.19,0,0,1-.6.16,3.1,3.1,0,0,1-.6.08c-.27,0-.4-.28-.4-.84A2.89,2.89,0,0,1,19.77,12a7,7,0,0,1,1.74-1.56,10.35,10.35,0,0,1,2.3-1.09,7.3,7.3,0,0,1,2.35-.42,12.12,12.12,0,0,1,2.52.24,4.72,4.72,0,0,1,1.94.87,4.07,4.07,0,0,1,1.23,1.72,7.83,7.83,0,0,1,.42,2.8v6.87a15.47,15.47,0,0,0,.1,2,3.25,3.25,0,0,0,.3,1,1.66,1.66,0,0,0,.62.73,1.49,1.49,0,0,0,.7.18,1.56,1.56,0,0,0,.62-.08A1,1,0,0,1,35,25.13Zm-6.07-7.79-1.29.2c-.69.14-1.37.3-2,.48a6.65,6.65,0,0,0-1.75.78,4.18,4.18,0,0,0-1.22,1.26,3.54,3.54,0,0,0-.46,1.88A3.21,3.21,0,0,0,23,24.26a2.62,2.62,0,0,0,1.95.79,3.57,3.57,0,0,0,1.51-.34,3.72,3.72,0,0,0,1.28-.95,5.33,5.33,0,0,0,.89-1.46,5,5,0,0,0,.34-1.84Z"/><path class="cls-1" d="M60.43,15.06a1,1,0,0,0,.72.9,7.92,7.92,0,0,0,1.6.46.43.43,0,0,1,.35.48,3.6,3.6,0,0,1-.07.64c-.7-.06-1.38-.1-2-.14s-1.39-.06-2.16-.06-1.43,0-2.14.06-1.4.08-2.09.14a3,3,0,0,1-.08-.64.43.43,0,0,1,.36-.48A7,7,0,0,0,56.39,16a1,1,0,0,0,.68-.9V7.23A13,13,0,0,0,57,5.39a4.47,4.47,0,0,0-.45-1.46,2.4,2.4,0,0,0-.92-1,2.86,2.86,0,0,0-1.49-.34,5.72,5.72,0,0,0-2,.34,5,5,0,0,0-1.69,1,4.82,4.82,0,0,0-1.17,1.62,5.27,5.27,0,0,0-.44,2.2v7.27a1,1,0,0,0,.7.9,7.94,7.94,0,0,0,1.5.46.43.43,0,0,1,.36.48,3.79,3.79,0,0,1-.08.64c-.69-.06-1.37-.1-2-.14s-1.38-.06-2.13-.06-1.52,0-2.22.06-1.37.08-2,.14a3.79,3.79,0,0,1-.08-.64.43.43,0,0,1,.36-.48,7.92,7.92,0,0,0,1.6-.46,1,1,0,0,0,.72-.94V4.15a2.73,2.73,0,0,0-.42-1.71,2.62,2.62,0,0,0-1.82-.64.54.54,0,0,1-.52-.56,2.45,2.45,0,0,1,.08-.52c.35,0,.84,0,1.46-.06S45.41.57,45.81.52C46.43.41,47,.3,47.47.18A4.91,4.91,0,0,1,48.52,0c.38,0,.56.2.56.6A9,9,0,0,1,49,1.94,14,14,0,0,0,48.84,4,17.79,17.79,0,0,1,52.13,1a6.13,6.13,0,0,1,3.44-1,4.51,4.51,0,0,1,3.64,1.42,5.83,5.83,0,0,1,1.22,3.93Z"/><path class="cls-1" d="M58.21,52.63A2.58,2.58,0,0,1,59,50.81,2.45,2.45,0,0,1,60.81,50a2.31,2.31,0,0,1,1.76.78,2.75,2.75,0,0,1,0,3.71,2.34,2.34,0,0,1-1.76.74A2.49,2.49,0,0,1,59,54.52,2.56,2.56,0,0,1,58.21,52.63Z"/></g></g></svg>